<svg width="20" height="21" viewBox="0 0 20 21" fill="none" xmlns="http://www.w3.org/2000/svg">
<path d="M18.7879 10.5194V4.57356C18.7879 3.12728 17.6061 1.95068 16.1535 1.95068H4.77076C3.31815 1.95068 2.1364 3.12732 2.1364 4.57356V10.5961C1.43281 11.3285 1 12.3208 1 13.4118V17.9203C1 18.7479 1.67624 19.4212 2.50749 19.4212C3.33871 19.4212 4.01495 18.7479 4.01495 17.9203V17.4547H16.9851V17.9203C16.9851 18.7479 17.6613 19.4212 18.4925 19.4212C19.3238 19.4212 20 18.7479 20 17.9203V13.4118C20 12.2822 19.536 11.2584 18.7879 10.5194ZM4.77076 2.68964H16.1535C17.1969 2.68964 18.0457 3.53478 18.0457 4.57356V9.93788C17.8169 9.79757 17.5748 9.68011 17.3228 9.58721V8.35855C17.3228 7.26933 16.4328 6.38318 15.3388 6.38318H12.113C11.4488 6.38318 10.8603 6.71006 10.5 7.21037C10.1397 6.71006 9.55122 6.38318 8.88712 6.38318H5.66127C4.56729 6.38318 3.67726 7.2693 3.67726 8.35855V9.58721C3.39722 9.69046 3.12941 9.82399 2.87863 9.98539V4.57356C2.87859 3.53478 3.72739 2.68964 4.77076 2.68964ZM5.09439 9.3353C4.8645 9.3353 4.63902 9.35459 4.41937 9.39102V8.35855C4.41937 7.67679 4.97646 7.12214 5.6612 7.12214H8.88704C9.57178 7.12214 10.1289 7.67679 10.1289 8.35855V9.33534L5.09439 9.3353ZM10.8711 8.35851C10.8711 7.67676 11.4282 7.1221 12.1129 7.1221H15.3388C16.0235 7.1221 16.5806 7.67676 16.5806 8.35851V9.39098C16.3575 9.35393 16.1317 9.33529 15.9056 9.33526H10.8711V8.35851ZM5.09439 10.0743H15.9056C17.754 10.0743 19.2578 11.5715 19.2578 13.4118V14.508H15.5359C15.3309 14.508 15.1648 14.6734 15.1648 14.8774C15.1648 15.0815 15.3309 15.2469 15.5359 15.2469H19.2578V16.7158H1.74219V15.2469H16.0664C16.2714 15.2469 16.4375 15.0815 16.4375 14.8774C16.4375 14.6734 16.2714 14.508 16.0664 14.508H1.74219V13.4118C1.74219 11.5715 3.24597 10.0743 5.09439 10.0743ZM3.27276 17.9203C3.27276 18.3404 2.92946 18.6823 2.50749 18.6823C2.08552 18.6823 1.74219 18.3404 1.74219 17.9203V17.4547H3.27276V17.9203ZM18.4925 18.6823C18.0705 18.6823 17.7272 18.3404 17.7272 17.9203V17.4547H19.2578V17.9203C19.2578 18.3404 18.9145 18.6823 18.4925 18.6823Z" fill="#E1BC8A"/>
<path d="M13.6799 15.2471C13.8849 15.2471 14.0512 15.0816 14.0512 14.8775C14.0512 14.6733 13.8849 14.5078 13.6799 14.5078C13.4748 14.5078 13.3086 14.6733 13.3086 14.8775C13.3086 15.0816 13.4748 15.2471 13.6799 15.2471Z" fill="#E1BC8A"/>
</svg>
