<svg width="40" height="41" viewBox="0 0 40 41" fill="none" xmlns="http://www.w3.org/2000/svg">
<path d="M18.4173 25.4167L15.334 28.5C14.684 29.15 13.6507 29.15 12.984 28.5167C12.8007 28.3333 12.6173 28.1667 12.434 27.9833C10.7173 26.25 9.16732 24.4333 7.78398 22.5333C6.41732 20.6333 5.31732 18.7333 4.51732 16.85C3.73398 14.95 3.33398 13.1333 3.33398 11.4C3.33398 10.2667 3.53398 9.18334 3.93398 8.18334C4.33398 7.16668 4.96732 6.23334 5.85065 5.40001C6.91732 4.35001 8.08398 3.83334 9.31732 3.83334C9.78398 3.83334 10.2507 3.93334 10.6673 4.13334C11.1007 4.33334 11.484 4.63334 11.784 5.06668L15.6507 10.5167C15.9507 10.9333 16.1673 11.3167 16.3173 11.6833C16.4673 12.0333 16.5507 12.3833 16.5507 12.7C16.5507 13.1 16.434 13.5 16.2007 13.8833C15.984 14.2667 15.6673 14.6667 15.2673 15.0667L14.0007 16.3833C13.8173 16.5667 13.734 16.7833 13.734 17.05C13.734 17.1833 13.7507 17.3 13.784 17.4333C13.834 17.5667 13.884 17.6667 13.9173 17.7667C14.2173 18.3167 14.734 19.0333 15.4673 19.9C16.2173 20.7667 17.0173 21.65 17.884 22.5333C18.0506 22.7 18.234 22.8667 18.4007 23.0333C19.0673 23.6833 19.084 24.75 18.4173 25.4167Z" fill="#E1BC8A"/>
<path d="M36.6167 31.05C36.6167 31.5166 36.5333 32 36.3667 32.4666C36.3167 32.6 36.2667 32.7333 36.2 32.8666C35.9167 33.4666 35.55 34.0333 35.0667 34.5666C34.25 35.4666 33.35 36.1166 32.3333 36.5333C32.3167 36.5333 32.3 36.55 32.2833 36.55C31.3 36.95 30.2333 37.1666 29.0833 37.1666C27.3833 37.1666 25.5667 36.7666 23.65 35.95C21.7333 35.1333 19.8167 34.0333 17.9167 32.65C17.2667 32.1666 16.6167 31.6833 16 31.1666L21.45 25.7166C21.9167 26.0666 22.3333 26.3333 22.6833 26.5166C22.7667 26.55 22.8667 26.6 22.9833 26.65C23.1167 26.7 23.25 26.7166 23.4 26.7166C23.6833 26.7166 23.9 26.6166 24.0833 26.4333L25.35 25.1833C25.7667 24.7666 26.1667 24.45 26.55 24.25C26.9333 24.0166 27.3167 23.9 27.7333 23.9C28.05 23.9 28.3833 23.9666 28.75 24.1166C29.1167 24.2666 29.5 24.4833 29.9167 24.7666L35.4333 28.6833C35.8667 28.9833 36.1667 29.3333 36.35 29.75C36.5167 30.1666 36.6167 30.5833 36.6167 31.05Z" fill="#E1BC8A"/>
</svg>
