<svg width="29" height="29" viewBox="0 0 29 29" fill="none" xmlns="http://www.w3.org/2000/svg">
<rect x="0.166016" y="0.950684" width="28" height="28" rx="14" fill="white"/>
<path d="M10.2999 5.68246C9.30684 5.72932 8.62867 5.8878 8.03582 6.12076C7.42224 6.35988 6.90219 6.68076 6.38475 7.20007C5.8673 7.71938 5.54866 8.23981 5.31122 8.85431C5.08143 9.44848 4.92575 10.1272 4.88189 11.1208C4.83802 12.1145 4.82831 12.4338 4.83317 14.9684C4.83802 17.503 4.84922 17.8207 4.89738 18.8164C4.94479 19.8093 5.10271 20.4872 5.33567 21.0803C5.57517 21.6939 5.89568 22.2137 6.41517 22.7313C6.93467 23.249 7.45472 23.5669 8.07072 23.8047C8.66433 24.0341 9.34324 24.1905 10.3367 24.234C11.3301 24.2775 11.6499 24.2876 14.1837 24.2827C16.7175 24.2779 17.0365 24.2667 18.032 24.2195C19.0275 24.1722 19.702 24.0132 20.2952 23.7814C20.9088 23.5413 21.429 23.2214 21.9463 22.7017C22.4635 22.182 22.782 21.6612 23.0192 21.0463C23.2492 20.4527 23.4054 19.7738 23.4486 18.7811C23.4921 17.7849 23.5023 17.4668 23.4975 14.9326C23.4926 12.3984 23.4812 12.0807 23.434 11.0854C23.3868 10.0901 23.2287 9.41413 22.9959 8.82071C22.756 8.20714 22.4359 7.68764 21.9166 7.16964C21.3973 6.65164 20.8761 6.33337 20.2614 6.09668C19.6674 5.86689 18.9889 5.71028 17.9955 5.66734C17.002 5.62441 16.6822 5.6134 14.1475 5.61825C11.6127 5.6231 11.2954 5.63393 10.2999 5.68246ZM10.4089 22.5549C9.49892 22.5154 9.00481 22.3642 8.67553 22.2376C8.23947 22.0696 7.92886 21.8665 7.6007 21.5415C7.27253 21.2165 7.07093 20.9048 6.90069 20.4697C6.77283 20.1404 6.61883 19.6469 6.57627 18.7369C6.52997 17.7533 6.52027 17.458 6.51485 14.9662C6.50944 12.4744 6.51896 12.1794 6.56208 11.1955C6.60091 10.2862 6.75304 9.79157 6.87941 9.46248C7.04741 9.02586 7.24976 8.71581 7.5755 8.38783C7.90123 8.05986 8.21203 7.85788 8.64753 7.68764C8.97643 7.55922 9.46998 7.40652 10.3796 7.36322C11.3639 7.31655 11.6588 7.30722 14.1503 7.3018C16.6417 7.29639 16.9374 7.30572 17.9221 7.34903C18.8313 7.3886 19.3262 7.53924 19.6549 7.66636C20.0912 7.83436 20.4016 8.03615 20.7296 8.36245C21.0575 8.68874 21.2597 8.99842 21.4299 9.43485C21.5586 9.76282 21.7113 10.2562 21.7542 11.1664C21.801 12.1507 21.8117 12.4458 21.8162 14.9371C21.8206 17.4283 21.8119 17.7242 21.7687 18.7077C21.729 19.6177 21.5782 20.112 21.4514 20.4417C21.2834 20.8776 21.0809 21.1884 20.755 21.5161C20.429 21.8439 20.1186 22.0459 19.6829 22.2161C19.3544 22.3444 18.8603 22.4975 17.9514 22.5408C16.9671 22.5871 16.6722 22.5968 14.1798 22.6022C11.6874 22.6076 11.3934 22.5975 10.4091 22.5549M18.0177 9.96218C18.018 10.1837 18.0841 10.4002 18.2075 10.5841C18.3309 10.7681 18.5061 10.9114 18.7109 10.9958C18.9157 11.0802 19.1409 11.102 19.3581 11.0584C19.5753 11.0148 19.7747 10.9078 19.9311 10.7508C20.0874 10.5939 20.1937 10.3941 20.2366 10.1768C20.2794 9.9594 20.2568 9.73423 20.1716 9.52973C20.0864 9.32522 19.9425 9.15057 19.7581 9.02785C19.5736 8.90513 19.357 8.83987 19.1354 8.84031C18.8385 8.84091 18.5539 8.95943 18.3443 9.16981C18.1346 9.38019 18.0172 9.66521 18.0177 9.96218ZM9.3731 14.9598C9.37833 17.6068 11.528 19.7477 14.1744 19.7426C16.8208 19.7376 18.9631 17.5881 18.9581 14.9412C18.9531 12.2942 16.8028 10.1528 14.1561 10.158C11.5093 10.1632 9.36806 12.3133 9.3731 14.9598ZM11.0542 14.9565C11.053 14.3411 11.2343 13.7393 11.5751 13.227C11.916 12.7146 12.4011 12.3149 12.9691 12.0783C13.5371 11.8417 14.1626 11.7789 14.7663 11.8977C15.3701 12.0166 15.925 12.3118 16.361 12.746C16.797 13.1803 17.0944 13.734 17.2156 14.3373C17.3368 14.9406 17.2765 15.5663 17.0421 16.1352C16.8078 16.7042 16.41 17.1909 15.899 17.5337C15.3881 17.8766 14.7869 18.0603 14.1716 18.0615C13.763 18.0624 13.3582 17.9827 12.9804 17.8271C12.6026 17.6715 12.2592 17.4431 11.9697 17.1547C11.6802 16.8664 11.4504 16.5238 11.2933 16.1467C11.1362 15.7695 11.055 15.3651 11.0542 14.9565Z" fill="#E1BC8A"/>
</svg>
