<svg width="29" height="29" viewBox="0 0 29 29" fill="none" xmlns="http://www.w3.org/2000/svg">
<rect x="0.5" y="0.950684" width="28" height="28" rx="14" fill="white"/>
<path d="M20.3076 20.7008H17.8634V16.9107C17.8634 16.0069 17.8471 14.8435 16.5921 14.8435C15.3191 14.8435 15.1243 15.8282 15.1243 16.8449V20.7005H12.6801V12.9066H15.0265V13.9717H15.0594C15.2942 13.5742 15.6335 13.2471 16.0412 13.0254C16.4489 12.8037 16.9097 12.6956 17.3745 12.7127C19.8519 12.7127 20.3087 14.3262 20.3087 16.4252L20.3076 20.7008ZM9.92213 11.8412C9.6416 11.8412 9.36734 11.7589 9.13405 11.6046C8.90076 11.4504 8.71893 11.231 8.61153 10.9744C8.50413 10.7178 8.47598 10.4354 8.53066 10.163C8.58534 9.89055 8.72039 9.64027 8.91873 9.44382C9.11706 9.24737 9.36978 9.11356 9.64492 9.05932C9.92005 9.00508 10.2053 9.03284 10.4645 9.1391C10.7237 9.24535 10.9452 9.42532 11.1011 9.65626C11.257 9.88719 11.3403 10.1587 11.3403 10.4365C11.3403 10.6209 11.3037 10.8036 11.2324 10.974C11.1612 11.1444 11.0567 11.2992 10.925 11.4297C10.7934 11.5601 10.637 11.6636 10.4649 11.7342C10.2928 11.8048 10.1084 11.8412 9.92213 11.8412ZM11.1443 20.7008H8.69747V12.9066H11.1443V20.7008ZM21.5262 6.7848H7.46924C7.15019 6.78124 6.84274 6.90324 6.61449 7.124C6.38623 7.34476 6.25585 7.64621 6.25195 7.96212V21.9384C6.25571 22.2544 6.38603 22.5561 6.61427 22.7771C6.84252 22.9981 7.15003 23.1203 7.46924 23.1169H21.5262C21.846 23.1209 22.1544 22.999 22.3835 22.778C22.6127 22.557 22.7439 22.255 22.7483 21.9384V7.96111C22.7437 7.64457 22.6125 7.34278 22.3833 7.12203C22.1542 6.90127 21.8459 6.77962 21.5262 6.7838" fill="#E1BC8A"/>
</svg>
