<svg width="20" height="21" viewBox="0 0 20 21" fill="none" xmlns="http://www.w3.org/2000/svg">
<path d="M10.0004 12.759C8.22539 12.759 6.77539 11.3174 6.77539 9.53405C6.77539 7.75072 8.22539 6.31738 10.0004 6.31738C11.7754 6.31738 13.2254 7.75905 13.2254 9.54238C13.2254 11.3257 11.7754 12.759 10.0004 12.759ZM10.0004 7.56738C8.91706 7.56738 8.02539 8.45072 8.02539 9.54238C8.02539 10.634 8.90872 11.5174 10.0004 11.5174C11.0921 11.5174 11.9754 10.634 11.9754 9.54238C11.9754 8.45072 11.0837 7.56738 10.0004 7.56738Z" fill="#E1BC8A"/>
<path d="M9.99941 19.9174C8.76608 19.9174 7.52441 19.4508 6.55775 18.5258C4.09941 16.1591 1.38275 12.3841 2.40775 7.89243C3.33275 3.81743 6.89108 1.99243 9.99941 1.99243C9.99941 1.99243 9.99942 1.99243 10.0077 1.99243C13.1161 1.99243 16.6744 3.81743 17.5994 7.90076C18.6161 12.3924 15.8994 16.1591 13.4411 18.5258C12.4744 19.4508 11.2327 19.9174 9.99941 19.9174ZM9.99941 3.24243C7.57441 3.24243 4.45775 4.5341 3.63275 8.16743C2.73275 12.0924 5.19941 15.4758 7.43275 17.6174C8.87441 19.0091 11.1327 19.0091 12.5744 17.6174C14.7994 15.4758 17.2661 12.0924 16.3827 8.16743C15.5494 4.5341 12.4244 3.24243 9.99941 3.24243Z" fill="#E1BC8A"/>
</svg>
