<svg width="48" height="49" viewBox="0 0 48 49" fill="none" xmlns="http://www.w3.org/2000/svg">
<path d="M42 16H6C5.18 16 4.5 15.32 4.5 14.5C4.5 13.68 5.18 13 6 13H42C42.82 13 43.5 13.68 43.5 14.5C43.5 15.32 42.82 16 42 16Z" fill="white"/>
<path d="M42.3077 26H13.6923C13.0405 26 12.5 25.32 12.5 24.5C12.5 23.68 13.0405 23 13.6923 23H42.3077C42.9595 23 43.5 23.68 43.5 24.5C43.5 25.32 42.9595 26 42.3077 26Z" fill="white"/>
<path d="M42.6154 36H21.3846C20.901 36 20.5 35.32 20.5 34.5C20.5 33.68 20.901 33 21.3846 33H42.6154C43.099 33 43.5 33.68 43.5 34.5C43.5 35.32 43.099 36 42.6154 36Z" fill="white"/>
</svg>
