<svg width="25" height="25" viewBox="0 0 25 25" fill="none" xmlns="http://www.w3.org/2000/svg">
<path fill-rule="evenodd" clip-rule="evenodd" d="M16.5605 23.1897C13.5425 23.1897 9.99146 21.5877 7.00946 18.6077C2.25146 13.8487 1.00946 7.63669 4.18146 4.46469C5.11846 3.52869 6.25846 2.95869 7.57346 2.76869L8.33346 2.65869L11.1305 9.18069L8.33346 10.5787C8.98146 11.8067 9.96346 13.0757 11.2525 14.3647C12.4815 15.5937 13.7495 16.5687 15.0225 17.2607L16.3365 14.6877L22.8195 15.6137L22.8575 16.4407C22.9525 18.4997 22.3625 20.2267 21.1515 21.4367C19.9675 22.6207 18.3585 23.1897 16.5605 23.1897ZM7.12777 4.92285C6.55277 5.11585 6.03877 5.43685 5.59577 5.88085C3.29577 8.17985 4.59177 13.3609 8.42377 17.1939C12.2578 21.0269 17.4378 22.3199 19.7378 20.0219C20.5038 19.2559 20.7798 18.2459 20.8478 17.3519L17.4808 16.8709L16.8348 18.1649C16.5908 18.6529 16.1698 19.0119 15.6488 19.1749C15.1278 19.3399 14.5498 19.2809 14.0658 19.0179C12.6258 18.2349 11.2028 17.1449 9.83777 15.7799C8.40777 14.3499 7.30877 12.9209 6.56977 11.5319C6.31277 11.0469 6.26377 10.4929 6.42977 9.97085C6.59577 9.45185 6.95477 9.03285 7.44177 8.78885L8.54777 8.23585L7.12777 4.92285Z" fill="white"/>
</svg>
