<svg width="20" height="21" viewBox="0 0 20 21" fill="none" xmlns="http://www.w3.org/2000/svg">
<path d="M8.28359 12.6674C8.20858 12.5924 8.10686 12.5503 8.00079 12.5503C7.89473 12.5503 7.793 12.5924 7.71799 12.6674L5.20039 15.185V12.9506C5.20039 12.8445 5.15825 12.7428 5.08323 12.6677C5.00822 12.5927 4.90648 12.5506 4.80039 12.5506C4.6943 12.5506 4.59256 12.5927 4.51755 12.6677C4.44253 12.7428 4.40039 12.8445 4.40039 12.9506V16.1506C4.40039 16.2567 4.44253 16.3584 4.51755 16.4334C4.59256 16.5084 4.6943 16.5506 4.80039 16.5506H8.00039C8.10648 16.5506 8.20822 16.5084 8.28323 16.4334C8.35825 16.3584 8.40039 16.2567 8.40039 16.1506C8.40039 16.0445 8.35825 15.9428 8.28323 15.8677C8.20822 15.7927 8.10648 15.7506 8.00039 15.7506H5.76599L8.28279 13.2338C8.32009 13.1967 8.34971 13.1526 8.36994 13.104C8.39018 13.0554 8.40063 13.0034 8.40071 12.9508C8.40078 12.8981 8.39047 12.846 8.37038 12.7974C8.35028 12.7488 8.32079 12.7046 8.28359 12.6674ZM15.3532 5.38099C15.3046 5.36139 15.2528 5.35108 15.2004 5.35059H12.0004C11.8943 5.35059 11.7926 5.39273 11.7175 5.46774C11.6425 5.54276 11.6004 5.6445 11.6004 5.75059C11.6004 5.85667 11.6425 5.95841 11.7175 6.03343C11.7926 6.10844 11.8943 6.15059 12.0004 6.15059H14.2348L11.718 8.66739C11.6808 8.70452 11.6513 8.74862 11.6311 8.79717C11.611 8.84571 11.6006 8.89775 11.6006 8.9503C11.6005 9.05645 11.6426 9.15828 11.7176 9.23339C11.7926 9.3085 11.8944 9.35073 12.0005 9.35081C12.1067 9.35088 12.2085 9.30879 12.2836 9.23379L14.8004 6.71619V8.95059C14.8004 9.05667 14.8425 9.15841 14.9175 9.23343C14.9926 9.30844 15.0943 9.35059 15.2004 9.35059C15.3065 9.35059 15.4082 9.30844 15.4832 9.23343C15.5582 9.15841 15.6004 9.05667 15.6004 8.95059V5.75059C15.6003 5.67146 15.5767 5.59414 15.5327 5.52836C15.4888 5.46259 15.4263 5.41131 15.3532 5.38099Z" fill="#E1BC8A"/>
<path d="M16 2.95068H4C3.46976 2.95132 2.96142 3.16224 2.58649 3.53717C2.21155 3.91211 2.00064 4.42045 2 4.95068V16.9507C2 18.0539 2.8976 18.9507 4 18.9507H16C17.1024 18.9507 18 18.0539 18 16.9507V4.95068C18 3.84748 17.1024 2.95068 16 2.95068ZM17.2 16.9507C17.2 17.6123 16.6616 18.1507 16 18.1507H4C3.3384 18.1507 2.8 17.6123 2.8 16.9507V4.95068C2.8 4.28908 3.3384 3.75068 4 3.75068H16C16.6616 3.75068 17.2 4.28908 17.2 4.95068V16.9507Z" fill="#E1BC8A"/>
</svg>
